<?xml version="1.0" standalone="no"?>
<!DOCTYPE svg PUBLIC "-//W3C//DTD SVG 20010904//EN"
 "http://www.w3.org/TR/2001/REC-SVG-20010904/DTD/svg10.dtd">
<svg version="1.0" xmlns="http://www.w3.org/2000/svg"
 width="582.000000pt" height="582.000000pt" viewBox="0 0 582.000000 582.000000"
 preserveAspectRatio="xMidYMid meet">
<metadata>
Created by potrace 1.11, written by Peter Selinger 2001-2013
</metadata>
<g transform="translate(0.000000,582.000000) scale(0.100000,-0.100000)"
fill="#000000" stroke="none">
<path d="M2769 5606 c-2 -2 -35 -7 -74 -10 -121 -11 -162 -18 -280 -43 -38 -8
-80 -17 -93 -19 -55 -11 -265 -79 -352 -114 -97 -39 -243 -109 -315 -150 -22
-13 -49 -28 -60 -34 -47 -26 -144 -92 -229 -156 -248 -186 -471 -431 -631
-694 -64 -105 -160 -298 -164 -329 0 -4 -8 -21 -17 -38 -8 -17 -17 -38 -20
-47 -2 -10 -12 -42 -23 -72 -38 -109 -81 -289 -97 -408 -15 -114 -17 -153 -18
-327 0 -168 5 -275 18 -340 4 -20 17 -95 22 -125 5 -32 16 -77 30 -130 8 -30
16 -62 19 -70 9 -39 69 -205 81 -228 8 -15 14 -30 14 -34 0 -7 93 -198 113
-233 59 -100 78 -130 123 -195 147 -211 346 -419 539 -562 6 -4 24 -18 40 -31
41 -33 190 -128 245 -158 25 -13 47 -26 50 -29 3 -3 25 -14 50 -25 25 -11 47
-22 50 -26 3 -4 34 -19 70 -34 36 -15 79 -33 95 -40 141 -63 470 -151 642
-170 21 -3 61 -8 88 -11 119 -16 526 -9 635 11 14 2 66 11 115 19 50 8 100 17
113 20 12 4 32 8 43 11 33 7 202 55 219 62 8 3 20 7 25 9 33 9 158 58 200 78
128 62 194 95 240 121 81 46 244 153 273 180 15 14 30 25 33 25 3 0 17 10 31
22 14 13 52 46 84 73 84 73 284 277 284 290 0 3 10 17 23 30 12 13 33 40 47
60 14 20 30 42 35 48 52 61 255 421 255 454 0 4 7 21 15 36 31 60 102 286 121
387 2 14 10 50 16 80 6 30 12 66 14 80 1 14 6 57 10 95 10 80 10 427 0 495 -3
25 -9 65 -12 90 -7 57 -9 67 -18 110 -34 165 -86 337 -132 438 -13 29 -24 56
-24 60 -1 7 -71 146 -119 233 -37 70 -181 279 -211 309 -3 3 -30 34 -60 70
-151 179 -438 420 -615 516 -11 6 -36 20 -55 31 -165 94 -465 219 -570 239
-14 3 -39 9 -56 15 -17 5 -40 11 -50 14 -10 2 -50 10 -89 18 -72 16 -106 22
-185 32 -25 3 -61 8 -80 11 -42 6 -465 15 -471 10z"/>
</g>
</svg>
